# MagicaVoxel @ Ephtracy

# group
o 

# material
mtllib banca.mtl
usemtl palette

# normals
vn -1 0 0
vn 1 0 0
vn 0 0 1
vn 0 0 -1
vn 0 -1 0
vn 0 1 0

# texcoords
vt 0.0761719 0.5
vt 0.0917969 0.5
vt 0.0957031 0.5
vt 0.994141 0.5

# verts
v -1.6 0.6 1.4
v -1.6 0.6 1.3
v -1.6 0.6 1.2
v -1.6 0.6 1.1
v -1.6 0.6 1
v -1.6 0.6 0
v -1.6 0.6 -0.1
v -1.6 0.6 -0.2
v -1.6 0.6 -0.3
v -1.6 0.6 -0.4
v -1.6 0.7 1.4
v -1.6 0.7 1.3
v -1.6 0.7 1.2
v -1.6 0.7 1.1
v -1.6 0.7 1
v -1.6 0.7 0
v -1.6 0.7 -0.1
v -1.6 0.7 -0.2
v -1.6 0.7 -0.3
v -1.6 0.7 -0.4
v -1.6 1 0.8
v -1.6 1 0.7
v -1.6 1 0.6
v -1.6 1 0.4
v -1.6 1 0.3
v -1.6 1 0.2
v -1.6 1.1 0.8
v -1.6 1.1 0.7
v -1.6 1.1 0.6
v -1.6 1.1 0.4
v -1.6 1.1 0.3
v -1.6 1.1 0.2
v -1.4 0 1.4
v -1.4 0 -0.4
v -1.4 0.2 1
v -1.4 0.2 0.7
v -1.4 0.2 0.3
v -1.4 0.2 0
v -1.4 0.6 1.4
v -1.4 0.6 1.3
v -1.4 0.6 1.2
v -1.4 0.6 1.1
v -1.4 0.6 1
v -1.4 0.6 0
v -1.4 0.6 -0.1
v -1.4 0.6 -0.2
v -1.4 0.6 -0.3
v -1.4 0.6 -0.4
v -1.4 1 0.7
v -1.4 1 0.6
v -1.4 1 0.4
v -1.4 1 0.3
v 0.7 0 1.4
v 0.7 0 -0.4
v 0.7 0.2 1
v 0.7 0.2 0.7
v 0.7 0.2 0.3
v 0.7 0.2 0
v 0.7 0.6 1.4
v 0.7 0.6 1.3
v 0.7 0.6 1.2
v 0.7 0.6 1.1
v 0.7 0.6 1
v 0.7 0.6 0
v 0.7 0.6 -0.1
v 0.7 0.6 -0.2
v 0.7 0.6 -0.3
v 0.7 0.6 -0.4
v 0.7 1 0.7
v 0.7 1 0.6
v 0.7 1 0.4
v 0.7 1 0.3
v 1.2 0 0.7
v 1.2 0 0.2
v 1.2 0.1 0.6
v 1.2 0.1 0.3
v 1.2 0.3 0.6
v 1.2 0.3 0.3
v 1.2 0.6 0.7
v 1.2 0.6 0.2
v 1.5 0.1 0.6
v 1.5 0.1 0.3
v 1.5 0.3 0.6
v 1.5 0.3 0.3
v 1.5 0.6 0.6
v 1.5 0.6 0.3
v -1.3 0 1.4
v -1.3 0 -0.4
v -1.3 0.2 1
v -1.3 0.2 0.7
v -1.3 0.2 0.3
v -1.3 0.2 0
v -1.3 0.6 1.4
v -1.3 0.6 1.3
v -1.3 0.6 1.2
v -1.3 0.6 1.1
v -1.3 0.6 1
v -1.3 0.6 0
v -1.3 0.6 -0.1
v -1.3 0.6 -0.2
v -1.3 0.6 -0.3
v -1.3 0.6 -0.4
v -1.3 1 0.7
v -1.3 1 0.6
v -1.3 1 0.4
v -1.3 1 0.3
v 0.8 0 1.4
v 0.8 0 -0.4
v 0.8 0.2 1
v 0.8 0.2 0.7
v 0.8 0.2 0.3
v 0.8 0.2 0
v 0.8 0.6 1.4
v 0.8 0.6 1.3
v 0.8 0.6 1.2
v 0.8 0.6 1.1
v 0.8 0.6 1
v 0.8 0.6 0
v 0.8 0.6 -0.1
v 0.8 0.6 -0.2
v 0.8 0.6 -0.3
v 0.8 0.6 -0.4
v 0.8 1 0.7
v 0.8 1 0.6
v 0.8 1 0.4
v 0.8 1 0.3
v 1 0.6 1.4
v 1 0.6 1.3
v 1 0.6 1.2
v 1 0.6 1.1
v 1 0.6 1
v 1 0.6 0
v 1 0.6 -0.1
v 1 0.6 -0.2
v 1 0.6 -0.3
v 1 0.6 -0.4
v 1 0.7 1.4
v 1 0.7 1.3
v 1 0.7 1.2
v 1 0.7 1.1
v 1 0.7 1
v 1 0.7 0
v 1 0.7 -0.1
v 1 0.7 -0.2
v 1 0.7 -0.3
v 1 0.7 -0.4
v 1 1 0.8
v 1 1 0.7
v 1 1 0.6
v 1 1 0.4
v 1 1 0.3
v 1 1 0.2
v 1 1.1 0.8
v 1 1.1 0.7
v 1 1.1 0.6
v 1 1.1 0.4
v 1 1.1 0.3
v 1 1.1 0.2
v 1.3 0.1 0.6
v 1.3 0.1 0.3
v 1.3 0.3 0.6
v 1.3 0.3 0.3
v 1.3 0.6 0.6
v 1.3 0.6 0.3
v 1.6 0 0.7
v 1.6 0 0.2
v 1.6 0.1 0.6
v 1.6 0.1 0.3
v 1.6 0.3 0.6
v 1.6 0.3 0.3
v 1.6 0.6 0.7
v 1.6 0.6 0.2
v -1.6 0.6 1.4
v -1.6 0.7 1.4
v -1.4 0 1.4
v -1.4 0.6 1.4
v -1.3 0 1.4
v -1.3 0.6 1.4
v 0.7 0 1.4
v 0.7 0.6 1.4
v 0.8 0 1.4
v 0.8 0.6 1.4
v 1 0.6 1.4
v 1 0.7 1.4
v -1.6 1 0.8
v -1.6 1.1 0.8
v 1 1 0.8
v 1 1.1 0.8
v -1.4 0.2 0.7
v -1.4 1 0.7
v -1.3 0.2 0.7
v -1.3 1 0.7
v 0.7 0.2 0.7
v 0.7 1 0.7
v 0.8 0.2 0.7
v 0.8 1 0.7
v 1.2 0 0.7
v 1.2 0.6 0.7
v 1.3 0.1 0.7
v 1.3 0.3 0.7
v 1.5 0.1 0.7
v 1.5 0.3 0.7
v 1.6 0 0.7
v 1.6 0.6 0.7
v 1.3 0.1 0.3
v 1.3 0.3 0.3
v 1.3 0.6 0.3
v 1.5 0.1 0.3
v 1.5 0.3 0.3
v 1.5 0.6 0.3
v -1.6 0.6 0
v -1.6 0.7 0
v -1.4 0.2 0
v -1.4 0.6 0
v -1.3 0.2 0
v -1.3 0.6 0
v 0.7 0.2 0
v 0.7 0.6 0
v 0.8 0.2 0
v 0.8 0.6 0
v 1 0.6 0
v 1 0.7 0
v -1.6 0.6 1
v -1.6 0.7 1
v -1.4 0.2 1
v -1.4 0.6 1
v -1.3 0.2 1
v -1.3 0.6 1
v 0.7 0.2 1
v 0.7 0.6 1
v 0.8 0.2 1
v 0.8 0.6 1
v 1 0.6 1
v 1 0.7 1
v 1.3 0.1 0.6
v 1.3 0.3 0.6
v 1.3 0.6 0.6
v 1.5 0.1 0.6
v 1.5 0.3 0.6
v 1.5 0.6 0.6
v -1.4 0.2 0.3
v -1.4 1 0.3
v -1.3 0.2 0.3
v -1.3 1 0.3
v 0.7 0.2 0.3
v 0.7 1 0.3
v 0.8 0.2 0.3
v 0.8 1 0.3
v -1.6 1 0.2
v -1.6 1.1 0.2
v 1 1 0.2
v 1 1.1 0.2
v 1.2 0 0.2
v 1.2 0.6 0.2
v 1.3 0.1 0.2
v 1.3 0.3 0.2
v 1.5 0.1 0.2
v 1.5 0.3 0.2
v 1.6 0 0.2
v 1.6 0.6 0.2
v -1.6 0.6 -0.4
v -1.6 0.7 -0.4
v -1.4 0 -0.4
v -1.4 0.6 -0.4
v -1.3 0 -0.4
v -1.3 0.6 -0.4
v 0.7 0 -0.4
v 0.7 0.6 -0.4
v 0.8 0 -0.4
v 0.8 0.6 -0.4
v 1 0.6 -0.4
v 1 0.7 -0.4
v -1.4 0 1.4
v -1.3 0 1.4
v 0.7 0 1.4
v 0.8 0 1.4
v 1.2 0 0.7
v 1.6 0 0.7
v 1.2 0 0.2
v 1.6 0 0.2
v -1.4 0 -0.4
v -1.3 0 -0.4
v 0.7 0 -0.4
v 0.8 0 -0.4
v -1.6 0.6 1.4
v -1.4 0.6 1.4
v -1.3 0.6 1.4
v 0.7 0.6 1.4
v 0.8 0.6 1.4
v 1 0.6 1.4
v -1.6 0.6 1.3
v -1.4 0.6 1.3
v -1.3 0.6 1.3
v 0.7 0.6 1.3
v 0.8 0.6 1.3
v 1 0.6 1.3
v -1.6 0.6 1.2
v -1.4 0.6 1.2
v -1.3 0.6 1.2
v 0.7 0.6 1.2
v 0.8 0.6 1.2
v 1 0.6 1.2
v -1.6 0.6 1.1
v -1.4 0.6 1.1
v -1.3 0.6 1.1
v 0.7 0.6 1.1
v 0.8 0.6 1.1
v 1 0.6 1.1
v -1.6 0.6 1
v -1.4 0.6 1
v -1.3 0.6 1
v 0.7 0.6 1
v 0.8 0.6 1
v 1 0.6 1
v -1.6 0.6 0
v -1.4 0.6 0
v -1.3 0.6 0
v 0.7 0.6 0
v 0.8 0.6 0
v 1 0.6 0
v -1.6 0.6 -0.1
v -1.4 0.6 -0.1
v -1.3 0.6 -0.1
v 0.7 0.6 -0.1
v 0.8 0.6 -0.1
v 1 0.6 -0.1
v -1.6 0.6 -0.2
v -1.4 0.6 -0.2
v -1.3 0.6 -0.2
v 0.7 0.6 -0.2
v 0.8 0.6 -0.2
v 1 0.6 -0.2
v -1.6 0.6 -0.3
v -1.4 0.6 -0.3
v -1.3 0.6 -0.3
v 0.7 0.6 -0.3
v 0.8 0.6 -0.3
v 1 0.6 -0.3
v -1.6 0.6 -0.4
v -1.4 0.6 -0.4
v -1.3 0.6 -0.4
v 0.7 0.6 -0.4
v 0.8 0.6 -0.4
v 1 0.6 -0.4
v -1.6 1 0.8
v 1 1 0.8
v -1.6 1 0.7
v -1.4 1 0.7
v -1.3 1 0.7
v 0.7 1 0.7
v 0.8 1 0.7
v 1 1 0.7
v -1.6 1 0.6
v -1.4 1 0.6
v -1.3 1 0.6
v 0.7 1 0.6
v 0.8 1 0.6
v 1 1 0.6
v -1.6 1 0.4
v -1.4 1 0.4
v -1.3 1 0.4
v 0.7 1 0.4
v 0.8 1 0.4
v 1 1 0.4
v -1.6 1 0.3
v -1.4 1 0.3
v -1.3 1 0.3
v 0.7 1 0.3
v 0.8 1 0.3
v 1 1 0.3
v -1.6 1 0.2
v 1 1 0.2
v 1.3 0.1 0.6
v 1.5 0.1 0.6
v 1.3 0.1 0.3
v 1.5 0.1 0.3
v -1.4 0.2 1
v -1.3 0.2 1
v 0.7 0.2 1
v 0.8 0.2 1
v -1.4 0.2 0.7
v -1.3 0.2 0.7
v 0.7 0.2 0.7
v 0.8 0.2 0.7
v -1.4 0.2 0.3
v -1.3 0.2 0.3
v 0.7 0.2 0.3
v 0.8 0.2 0.3
v -1.4 0.2 0
v -1.3 0.2 0
v 0.7 0.2 0
v 0.8 0.2 0
v 1.2 0.6 0.7
v 1.6 0.6 0.7
v 1.3 0.6 0.6
v 1.5 0.6 0.6
v 1.3 0.6 0.3
v 1.5 0.6 0.3
v 1.2 0.6 0.2
v 1.6 0.6 0.2
v -1.6 0.7 1.4
v 1 0.7 1.4
v -1.6 0.7 1.3
v 1 0.7 1.3
v -1.6 0.7 1.2
v 1 0.7 1.2
v -1.6 0.7 1.1
v 1 0.7 1.1
v -1.6 0.7 1
v 1 0.7 1
v -1.6 0.7 0
v 1 0.7 0
v -1.6 0.7 -0.1
v 1 0.7 -0.1
v -1.6 0.7 -0.2
v 1 0.7 -0.2
v -1.6 0.7 -0.3
v 1 0.7 -0.3
v -1.6 0.7 -0.4
v 1 0.7 -0.4
v -1.6 1.1 0.8
v 1 1.1 0.8
v -1.6 1.1 0.7
v 1 1.1 0.7
v -1.6 1.1 0.6
v 1 1.1 0.6
v -1.6 1.1 0.4
v 1 1.1 0.4
v -1.6 1.1 0.3
v 1 1.1 0.3
v -1.6 1.1 0.2
v 1 1.1 0.2

# faces
f 11/2/1 2/2/1 1/2/1
f 12/1/1 3/1/1 2/1/1
f 12/2/1 2/2/1 11/2/1
f 13/2/1 4/2/1 3/2/1
f 13/1/1 3/1/1 12/1/1
f 14/1/1 5/1/1 4/1/1
f 14/2/1 4/2/1 13/2/1
f 15/1/1 5/1/1 14/1/1
f 16/1/1 7/1/1 6/1/1
f 17/2/1 8/2/1 7/2/1
f 17/1/1 7/1/1 16/1/1
f 18/1/1 9/1/1 8/1/1
f 18/2/1 8/2/1 17/2/1
f 19/2/1 10/2/1 9/2/1
f 19/1/1 9/1/1 18/1/1
f 20/2/1 10/2/1 19/2/1
f 27/1/1 22/1/1 21/1/1
f 28/2/1 23/2/1 22/2/1
f 28/1/1 22/1/1 27/1/1
f 29/1/1 24/1/1 23/1/1
f 29/2/1 23/2/1 28/2/1
f 30/2/1 25/2/1 24/2/1
f 30/1/1 24/1/1 29/1/1
f 31/1/1 26/1/1 25/1/1
f 31/2/1 25/2/1 30/2/1
f 32/1/1 26/1/1 31/1/1
f 35/3/1 34/3/1 33/3/1
f 36/3/1 34/3/1 35/3/1
f 37/3/1 34/3/1 36/3/1
f 38/3/1 34/3/1 37/3/1
f 39/3/1 35/3/1 33/3/1
f 40/3/1 35/3/1 39/3/1
f 41/3/1 35/3/1 40/3/1
f 42/3/1 35/3/1 41/3/1
f 43/3/1 35/3/1 42/3/1
f 44/3/1 34/3/1 38/3/1
f 45/3/1 34/3/1 44/3/1
f 46/3/1 34/3/1 45/3/1
f 47/3/1 34/3/1 46/3/1
f 48/3/1 34/3/1 47/3/1
f 49/3/1 37/3/1 36/3/1
f 50/3/1 37/3/1 49/3/1
f 51/3/1 37/3/1 50/3/1
f 52/3/1 37/3/1 51/3/1
f 55/3/1 54/3/1 53/3/1
f 56/3/1 54/3/1 55/3/1
f 57/3/1 54/3/1 56/3/1
f 58/3/1 54/3/1 57/3/1
f 59/3/1 55/3/1 53/3/1
f 60/3/1 55/3/1 59/3/1
f 61/3/1 55/3/1 60/3/1
f 62/3/1 55/3/1 61/3/1
f 63/3/1 55/3/1 62/3/1
f 64/3/1 54/3/1 58/3/1
f 65/3/1 54/3/1 64/3/1
f 66/3/1 54/3/1 65/3/1
f 67/3/1 54/3/1 66/3/1
f 68/3/1 54/3/1 67/3/1
f 69/3/1 57/3/1 56/3/1
f 70/3/1 57/3/1 69/3/1
f 71/3/1 57/3/1 70/3/1
f 72/3/1 57/3/1 71/3/1
f 75/3/1 74/3/1 73/3/1
f 76/3/1 74/3/1 75/3/1
f 77/3/1 75/3/1 73/3/1
f 77/4/1 76/4/1 75/4/1
f 78/3/1 74/3/1 76/3/1
f 78/4/1 76/4/1 77/4/1
f 79/3/1 77/3/1 73/3/1
f 79/3/1 78/3/1 77/3/1
f 80/3/1 74/3/1 78/3/1
f 80/3/1 78/3/1 79/3/1
f 83/4/1 82/4/1 81/4/1
f 84/4/1 82/4/1 83/4/1
f 85/3/1 84/3/1 83/3/1
f 86/3/1 84/3/1 85/3/1
f 87/3/2 88/3/2 89/3/2
f 89/3/2 88/3/2 90/3/2
f 90/3/2 88/3/2 91/3/2
f 91/3/2 88/3/2 92/3/2
f 87/3/2 89/3/2 93/3/2
f 93/3/2 89/3/2 94/3/2
f 94/3/2 89/3/2 95/3/2
f 95/3/2 89/3/2 96/3/2
f 96/3/2 89/3/2 97/3/2
f 92/3/2 88/3/2 98/3/2
f 98/3/2 88/3/2 99/3/2
f 99/3/2 88/3/2 100/3/2
f 100/3/2 88/3/2 101/3/2
f 101/3/2 88/3/2 102/3/2
f 90/3/2 91/3/2 103/3/2
f 103/3/2 91/3/2 104/3/2
f 104/3/2 91/3/2 105/3/2
f 105/3/2 91/3/2 106/3/2
f 107/3/2 108/3/2 109/3/2
f 109/3/2 108/3/2 110/3/2
f 110/3/2 108/3/2 111/3/2
f 111/3/2 108/3/2 112/3/2
f 107/3/2 109/3/2 113/3/2
f 113/3/2 109/3/2 114/3/2
f 114/3/2 109/3/2 115/3/2
f 115/3/2 109/3/2 116/3/2
f 116/3/2 109/3/2 117/3/2
f 112/3/2 108/3/2 118/3/2
f 118/3/2 108/3/2 119/3/2
f 119/3/2 108/3/2 120/3/2
f 120/3/2 108/3/2 121/3/2
f 121/3/2 108/3/2 122/3/2
f 110/3/2 111/3/2 123/3/2
f 123/3/2 111/3/2 124/3/2
f 124/3/2 111/3/2 125/3/2
f 125/3/2 111/3/2 126/3/2
f 127/2/2 128/2/2 137/2/2
f 128/1/2 129/1/2 138/1/2
f 137/2/2 128/2/2 138/2/2
f 129/2/2 130/2/2 139/2/2
f 138/1/2 129/1/2 139/1/2
f 130/1/2 131/1/2 140/1/2
f 139/2/2 130/2/2 140/2/2
f 140/1/2 131/1/2 141/1/2
f 132/1/2 133/1/2 142/1/2
f 133/2/2 134/2/2 143/2/2
f 142/1/2 133/1/2 143/1/2
f 134/1/2 135/1/2 144/1/2
f 143/2/2 134/2/2 144/2/2
f 135/2/2 136/2/2 145/2/2
f 144/1/2 135/1/2 145/1/2
f 145/2/2 136/2/2 146/2/2
f 147/1/2 148/1/2 153/1/2
f 148/2/2 149/2/2 154/2/2
f 153/1/2 148/1/2 154/1/2
f 149/1/2 150/1/2 155/1/2
f 154/2/2 149/2/2 155/2/2
f 150/2/2 151/2/2 156/2/2
f 155/1/2 150/1/2 156/1/2
f 151/1/2 152/1/2 157/1/2
f 156/2/2 151/2/2 157/2/2
f 157/1/2 152/1/2 158/1/2
f 159/4/2 160/4/2 161/4/2
f 161/4/2 160/4/2 162/4/2
f 161/3/2 162/3/2 163/3/2
f 163/3/2 162/3/2 164/3/2
f 165/3/2 166/3/2 167/3/2
f 167/3/2 166/3/2 168/3/2
f 165/3/2 167/3/2 169/3/2
f 167/4/2 168/4/2 169/4/2
f 168/3/2 166/3/2 170/3/2
f 169/4/2 168/4/2 170/4/2
f 165/3/2 169/3/2 171/3/2
f 169/3/2 170/3/2 171/3/2
f 170/3/2 166/3/2 172/3/2
f 171/3/2 170/3/2 172/3/2
f 176/2/3 174/2/3 173/2/3
f 177/3/3 176/3/3 175/3/3
f 178/2/3 174/2/3 176/2/3
f 178/3/3 176/3/3 177/3/3
f 180/2/3 174/2/3 178/2/3
f 181/3/3 180/3/3 179/3/3
f 182/2/3 174/2/3 180/2/3
f 182/3/3 180/3/3 181/3/3
f 183/2/3 174/2/3 182/2/3
f 184/2/3 174/2/3 183/2/3
f 187/1/3 186/1/3 185/1/3
f 188/1/3 186/1/3 187/1/3
f 191/3/3 190/3/3 189/3/3
f 192/3/3 190/3/3 191/3/3
f 195/3/3 194/3/3 193/3/3
f 196/3/3 194/3/3 195/3/3
f 199/3/3 198/3/3 197/3/3
f 200/3/3 198/3/3 199/3/3
f 201/3/3 199/3/3 197/3/3
f 201/4/3 200/4/3 199/4/3
f 202/3/3 198/3/3 200/3/3
f 202/4/3 200/4/3 201/4/3
f 203/3/3 201/3/3 197/3/3
f 203/3/3 202/3/3 201/3/3
f 204/3/3 198/3/3 202/3/3
f 204/3/3 202/3/3 203/3/3
f 208/4/3 206/4/3 205/4/3
f 209/3/3 207/3/3 206/3/3
f 209/4/3 206/4/3 208/4/3
f 210/3/3 207/3/3 209/3/3
f 214/1/3 212/1/3 211/1/3
f 215/3/3 214/3/3 213/3/3
f 216/1/3 212/1/3 214/1/3
f 216/3/3 214/3/3 215/3/3
f 218/1/3 212/1/3 216/1/3
f 219/3/3 218/3/3 217/3/3
f 220/1/3 212/1/3 218/1/3
f 220/3/3 218/3/3 219/3/3
f 221/1/3 212/1/3 220/1/3
f 222/1/3 212/1/3 221/1/3
f 223/1/4 224/1/4 226/1/4
f 225/3/4 226/3/4 227/3/4
f 226/1/4 224/1/4 228/1/4
f 227/3/4 226/3/4 228/3/4
f 228/1/4 224/1/4 230/1/4
f 229/3/4 230/3/4 231/3/4
f 230/1/4 224/1/4 232/1/4
f 231/3/4 230/3/4 232/3/4
f 232/1/4 224/1/4 233/1/4
f 233/1/4 224/1/4 234/1/4
f 235/4/4 236/4/4 238/4/4
f 236/3/4 237/3/4 239/3/4
f 238/4/4 236/4/4 239/4/4
f 239/3/4 237/3/4 240/3/4
f 241/3/4 242/3/4 243/3/4
f 243/3/4 242/3/4 244/3/4
f 245/3/4 246/3/4 247/3/4
f 247/3/4 246/3/4 248/3/4
f 249/1/4 250/1/4 251/1/4
f 251/1/4 250/1/4 252/1/4
f 253/3/4 254/3/4 255/3/4
f 255/3/4 254/3/4 256/3/4
f 253/3/4 255/3/4 257/3/4
f 255/4/4 256/4/4 257/4/4
f 256/3/4 254/3/4 258/3/4
f 257/4/4 256/4/4 258/4/4
f 253/3/4 257/3/4 259/3/4
f 257/3/4 258/3/4 259/3/4
f 258/3/4 254/3/4 260/3/4
f 259/3/4 258/3/4 260/3/4
f 261/2/4 262/2/4 264/2/4
f 263/3/4 264/3/4 265/3/4
f 264/2/4 262/2/4 266/2/4
f 265/3/4 264/3/4 266/3/4
f 266/2/4 262/2/4 268/2/4
f 267/3/4 268/3/4 269/3/4
f 268/2/4 262/2/4 270/2/4
f 269/3/4 268/3/4 270/3/4
f 270/2/4 262/2/4 271/2/4
f 271/2/4 262/2/4 272/2/4
f 279/3/5 278/3/5 277/3/5
f 280/3/5 278/3/5 279/3/5
f 281/3/5 274/3/5 273/3/5
f 282/3/5 274/3/5 281/3/5
f 283/3/5 276/3/5 275/3/5
f 284/3/5 276/3/5 283/3/5
f 291/2/5 286/2/5 285/2/5
f 292/2/5 286/2/5 291/2/5
f 293/2/5 288/2/5 287/2/5
f 294/2/5 288/2/5 293/2/5
f 295/2/5 290/2/5 289/2/5
f 296/2/5 290/2/5 295/2/5
f 297/1/5 292/1/5 291/1/5
f 298/1/5 292/1/5 297/1/5
f 299/1/5 294/1/5 293/1/5
f 300/1/5 294/1/5 299/1/5
f 301/1/5 296/1/5 295/1/5
f 302/1/5 296/1/5 301/1/5
f 303/2/5 298/2/5 297/2/5
f 304/2/5 298/2/5 303/2/5
f 305/2/5 300/2/5 299/2/5
f 306/2/5 300/2/5 305/2/5
f 307/2/5 302/2/5 301/2/5
f 308/2/5 302/2/5 307/2/5
f 309/1/5 304/1/5 303/1/5
f 310/1/5 304/1/5 309/1/5
f 311/1/5 306/1/5 305/1/5
f 312/1/5 306/1/5 311/1/5
f 313/1/5 308/1/5 307/1/5
f 314/1/5 308/1/5 313/1/5
f 321/1/5 316/1/5 315/1/5
f 322/1/5 316/1/5 321/1/5
f 323/1/5 318/1/5 317/1/5
f 324/1/5 318/1/5 323/1/5
f 325/1/5 320/1/5 319/1/5
f 326/1/5 320/1/5 325/1/5
f 327/2/5 322/2/5 321/2/5
f 328/2/5 322/2/5 327/2/5
f 329/2/5 324/2/5 323/2/5
f 330/2/5 324/2/5 329/2/5
f 331/2/5 326/2/5 325/2/5
f 332/2/5 326/2/5 331/2/5
f 333/1/5 328/1/5 327/1/5
f 334/1/5 328/1/5 333/1/5
f 335/1/5 330/1/5 329/1/5
f 336/1/5 330/1/5 335/1/5
f 337/1/5 332/1/5 331/1/5
f 338/1/5 332/1/5 337/1/5
f 339/2/5 334/2/5 333/2/5
f 340/2/5 334/2/5 339/2/5
f 341/2/5 336/2/5 335/2/5
f 342/2/5 336/2/5 341/2/5
f 343/2/5 338/2/5 337/2/5
f 344/2/5 338/2/5 343/2/5
f 347/1/5 346/1/5 345/1/5
f 348/1/5 346/1/5 347/1/5
f 349/1/5 346/1/5 348/1/5
f 350/1/5 346/1/5 349/1/5
f 351/1/5 346/1/5 350/1/5
f 352/1/5 346/1/5 351/1/5
f 353/2/5 348/2/5 347/2/5
f 354/2/5 348/2/5 353/2/5
f 355/2/5 350/2/5 349/2/5
f 356/2/5 350/2/5 355/2/5
f 357/2/5 352/2/5 351/2/5
f 358/2/5 352/2/5 357/2/5
f 359/1/5 354/1/5 353/1/5
f 360/1/5 354/1/5 359/1/5
f 361/1/5 356/1/5 355/1/5
f 362/1/5 356/1/5 361/1/5
f 363/1/5 358/1/5 357/1/5
f 364/1/5 358/1/5 363/1/5
f 365/2/5 360/2/5 359/2/5
f 366/2/5 360/2/5 365/2/5
f 367/2/5 362/2/5 361/2/5
f 368/2/5 362/2/5 367/2/5
f 369/2/5 364/2/5 363/2/5
f 370/2/5 364/2/5 369/2/5
f 371/1/5 366/1/5 365/1/5
f 371/1/5 368/1/5 367/1/5
f 371/1/5 370/1/5 369/1/5
f 371/1/5 369/1/5 368/1/5
f 371/1/5 367/1/5 366/1/5
f 372/1/5 370/1/5 371/1/5
f 373/3/6 374/3/6 375/3/6
f 375/3/6 374/3/6 376/3/6
f 377/3/6 378/3/6 381/3/6
f 381/3/6 378/3/6 382/3/6
f 379/3/6 380/3/6 383/3/6
f 383/3/6 380/3/6 384/3/6
f 385/3/6 386/3/6 389/3/6
f 389/3/6 386/3/6 390/3/6
f 387/3/6 388/3/6 391/3/6
f 391/3/6 388/3/6 392/3/6
f 393/3/6 394/3/6 395/3/6
f 395/3/6 394/3/6 396/3/6
f 393/3/6 395/3/6 397/3/6
f 396/3/6 394/3/6 398/3/6
f 393/3/6 397/3/6 399/3/6
f 397/3/6 398/3/6 399/3/6
f 398/3/6 394/3/6 400/3/6
f 399/3/6 398/3/6 400/3/6
f 401/2/6 402/2/6 403/2/6
f 403/2/6 402/2/6 404/2/6
f 403/1/6 404/1/6 405/1/6
f 405/1/6 404/1/6 406/1/6
f 405/2/6 406/2/6 407/2/6
f 407/2/6 406/2/6 408/2/6
f 407/1/6 408/1/6 409/1/6
f 409/1/6 408/1/6 410/1/6
f 411/1/6 412/1/6 413/1/6
f 413/1/6 412/1/6 414/1/6
f 413/2/6 414/2/6 415/2/6
f 415/2/6 414/2/6 416/2/6
f 415/1/6 416/1/6 417/1/6
f 417/1/6 416/1/6 418/1/6
f 417/2/6 418/2/6 419/2/6
f 419/2/6 418/2/6 420/2/6
f 421/1/6 422/1/6 423/1/6
f 423/1/6 422/1/6 424/1/6
f 423/2/6 424/2/6 425/2/6
f 425/2/6 424/2/6 426/2/6
f 425/1/6 426/1/6 427/1/6
f 427/1/6 426/1/6 428/1/6
f 427/2/6 428/2/6 429/2/6
f 429/2/6 428/2/6 430/2/6
f 429/1/6 430/1/6 431/1/6
f 431/1/6 430/1/6 432/1/6
