# MagicaVoxel @ Ephtracy

# group
o 

# material
mtllib farol.mtl
usemtl palette

# normals
vn -1 0 0
vn 1 0 0
vn 0 0 1
vn 0 0 -1
vn 0 -1 0
vn 0 1 0

# texcoords
vt 0.0292969 0.5
vt 0.0761719 0.5
vt 0.0839844 0.5
vt 0.0878906 0.5

# verts
v -0.4 0 0.6
v -0.4 0 0
v -0.4 0.1 0.6
v -0.4 0.1 0
v -0.4 2.4 0.6
v -0.4 2.4 0
v -0.4 2.5 0.6
v -0.4 2.5 0
v -0.3 0.1 0.5
v -0.3 0.1 0.1
v -0.3 0.2 0.5
v -0.3 0.2 0.1
v -0.3 2 0.5
v -0.3 2 0.1
v -0.3 2.1 0.5
v -0.3 2.1 0.4
v -0.3 2.1 0.2
v -0.3 2.1 0.1
v -0.3 2.4 0.5
v -0.3 2.4 0.4
v -0.3 2.4 0.2
v -0.3 2.4 0.1
v -0.3 2.5 0.5
v -0.3 2.5 0.1
v -0.3 2.6 0.5
v -0.3 2.6 0.1
v -0.2 0.2 0.4
v -0.2 0.2 0.2
v -0.2 2 0.4
v -0.2 2 0.2
v -0.2 2.6 0.4
v -0.2 2.6 0.2
v -0.2 2.7 0.4
v -0.2 2.7 0.2
v 0 2.1 0.5
v 0 2.1 0.4
v 0 2.1 0.2
v 0 2.1 0.1
v 0 2.4 0.5
v 0 2.4 0.4
v 0 2.4 0.2
v 0 2.4 0.1
v 0 2.5 0.4
v 0 2.5 0.2
v 0 2.6 0.4
v 0 2.6 0.2
v -0.2 2.1 0.5
v -0.2 2.1 0.4
v -0.2 2.1 0.2
v -0.2 2.1 0.1
v -0.2 2.4 0.5
v -0.2 2.4 0.4
v -0.2 2.4 0.2
v -0.2 2.4 0.1
v -0.2 2.5 0.4
v -0.2 2.5 0.2
v -0.2 2.6 0.4
v -0.2 2.6 0.2
v 0 0.2 0.4
v 0 0.2 0.2
v 0 2 0.4
v 0 2 0.2
v 0 2.6 0.4
v 0 2.6 0.2
v 0 2.7 0.4
v 0 2.7 0.2
v 0.1 0.1 0.5
v 0.1 0.1 0.1
v 0.1 0.2 0.5
v 0.1 0.2 0.1
v 0.1 2 0.5
v 0.1 2 0.1
v 0.1 2.1 0.5
v 0.1 2.1 0.4
v 0.1 2.1 0.2
v 0.1 2.1 0.1
v 0.1 2.4 0.5
v 0.1 2.4 0.4
v 0.1 2.4 0.2
v 0.1 2.4 0.1
v 0.1 2.5 0.5
v 0.1 2.5 0.1
v 0.1 2.6 0.5
v 0.1 2.6 0.1
v 0.2 0 0.6
v 0.2 0 0
v 0.2 0.1 0.6
v 0.2 0.1 0
v 0.2 2.4 0.6
v 0.2 2.4 0
v 0.2 2.5 0.6
v 0.2 2.5 0
v -0.4 0 0.6
v -0.4 0.1 0.6
v -0.4 2.4 0.6
v -0.4 2.5 0.6
v 0.2 0 0.6
v 0.2 0.1 0.6
v 0.2 2.4 0.6
v 0.2 2.5 0.6
v -0.3 0.1 0.5
v -0.3 0.2 0.5
v -0.3 2 0.5
v -0.3 2.1 0.5
v -0.3 2.4 0.5
v -0.3 2.5 0.5
v -0.3 2.6 0.5
v -0.2 2.1 0.5
v -0.2 2.4 0.5
v 0 2.1 0.5
v 0 2.4 0.5
v 0.1 0.1 0.5
v 0.1 0.2 0.5
v 0.1 2 0.5
v 0.1 2.1 0.5
v 0.1 2.4 0.5
v 0.1 2.5 0.5
v 0.1 2.6 0.5
v -0.2 0.2 0.4
v -0.2 2 0.4
v -0.2 2.6 0.4
v -0.2 2.7 0.4
v 0 0.2 0.4
v 0 2 0.4
v 0 2.6 0.4
v 0 2.7 0.4
v -0.3 2.1 0.2
v -0.3 2.4 0.2
v -0.2 2.1 0.2
v -0.2 2.4 0.2
v -0.2 2.5 0.2
v -0.2 2.6 0.2
v 0 2.1 0.2
v 0 2.4 0.2
v 0 2.5 0.2
v 0 2.6 0.2
v 0.1 2.1 0.2
v 0.1 2.4 0.2
v -0.3 2.1 0.4
v -0.3 2.4 0.4
v -0.2 2.1 0.4
v -0.2 2.4 0.4
v -0.2 2.5 0.4
v -0.2 2.6 0.4
v 0 2.1 0.4
v 0 2.4 0.4
v 0 2.5 0.4
v 0 2.6 0.4
v 0.1 2.1 0.4
v 0.1 2.4 0.4
v -0.2 0.2 0.2
v -0.2 2 0.2
v -0.2 2.6 0.2
v -0.2 2.7 0.2
v 0 0.2 0.2
v 0 2 0.2
v 0 2.6 0.2
v 0 2.7 0.2
v -0.3 0.1 0.1
v -0.3 0.2 0.1
v -0.3 2 0.1
v -0.3 2.1 0.1
v -0.3 2.4 0.1
v -0.3 2.5 0.1
v -0.3 2.6 0.1
v -0.2 2.1 0.1
v -0.2 2.4 0.1
v 0 2.1 0.1
v 0 2.4 0.1
v 0.1 0.1 0.1
v 0.1 0.2 0.1
v 0.1 2 0.1
v 0.1 2.1 0.1
v 0.1 2.4 0.1
v 0.1 2.5 0.1
v 0.1 2.6 0.1
v -0.4 0 0
v -0.4 0.1 0
v -0.4 2.4 0
v -0.4 2.5 0
v 0.2 0 0
v 0.2 0.1 0
v 0.2 2.4 0
v 0.2 2.5 0
v -0.4 0 0.6
v 0.2 0 0.6
v -0.4 0 0
v 0.2 0 0
v -0.3 2 0.5
v 0.1 2 0.5
v -0.2 2 0.4
v 0 2 0.4
v -0.2 2 0.2
v 0 2 0.2
v -0.3 2 0.1
v 0.1 2 0.1
v -0.4 2.4 0.6
v 0.2 2.4 0.6
v -0.3 2.4 0.5
v -0.2 2.4 0.5
v 0 2.4 0.5
v 0.1 2.4 0.5
v -0.3 2.4 0.4
v -0.2 2.4 0.4
v 0 2.4 0.4
v 0.1 2.4 0.4
v -0.3 2.4 0.2
v -0.2 2.4 0.2
v 0 2.4 0.2
v 0.1 2.4 0.2
v -0.3 2.4 0.1
v -0.2 2.4 0.1
v 0 2.4 0.1
v 0.1 2.4 0.1
v -0.4 2.4 0
v 0.2 2.4 0
v -0.2 2.6 0.4
v 0 2.6 0.4
v -0.2 2.6 0.2
v 0 2.6 0.2
v -0.4 0.1 0.6
v 0.2 0.1 0.6
v -0.3 0.1 0.5
v 0.1 0.1 0.5
v -0.3 0.1 0.1
v 0.1 0.1 0.1
v -0.4 0.1 0
v 0.2 0.1 0
v -0.3 0.2 0.5
v 0.1 0.2 0.5
v -0.2 0.2 0.4
v 0 0.2 0.4
v -0.2 0.2 0.2
v 0 0.2 0.2
v -0.3 0.2 0.1
v 0.1 0.2 0.1
v -0.2 2.1 0.5
v 0 2.1 0.5
v -0.3 2.1 0.4
v -0.2 2.1 0.4
v 0 2.1 0.4
v 0.1 2.1 0.4
v -0.3 2.1 0.2
v -0.2 2.1 0.2
v 0 2.1 0.2
v 0.1 2.1 0.2
v -0.2 2.1 0.1
v 0 2.1 0.1
v -0.4 2.5 0.6
v 0.2 2.5 0.6
v -0.3 2.5 0.5
v 0.1 2.5 0.5
v -0.2 2.5 0.4
v 0 2.5 0.4
v -0.2 2.5 0.2
v 0 2.5 0.2
v -0.3 2.5 0.1
v 0.1 2.5 0.1
v -0.4 2.5 0
v 0.2 2.5 0
v -0.3 2.6 0.5
v 0.1 2.6 0.5
v -0.2 2.6 0.4
v 0 2.6 0.4
v -0.2 2.6 0.2
v 0 2.6 0.2
v -0.3 2.6 0.1
v 0.1 2.6 0.1
v -0.2 2.7 0.4
v 0 2.7 0.4
v -0.2 2.7 0.2
v 0 2.7 0.2

# faces
f 3/3/1 2/3/1 1/3/1
f 4/3/1 2/3/1 3/3/1
f 7/3/1 6/3/1 5/3/1
f 8/3/1 6/3/1 7/3/1
f 11/3/1 10/3/1 9/3/1
f 12/3/1 10/3/1 11/3/1
f 15/3/1 14/3/1 13/3/1
f 16/3/1 14/3/1 15/3/1
f 17/3/1 14/3/1 16/3/1
f 18/3/1 14/3/1 17/3/1
f 19/2/1 16/2/1 15/2/1
f 20/2/1 16/2/1 19/2/1
f 21/2/1 18/2/1 17/2/1
f 22/2/1 18/2/1 21/2/1
f 25/3/1 24/3/1 23/3/1
f 26/3/1 24/3/1 25/3/1
f 29/4/1 28/4/1 27/4/1
f 30/4/1 28/4/1 29/4/1
f 33/3/1 32/3/1 31/3/1
f 34/3/1 32/3/1 33/3/1
f 39/2/1 36/2/1 35/2/1
f 40/2/1 36/2/1 39/2/1
f 41/2/1 38/2/1 37/2/1
f 42/2/1 38/2/1 41/2/1
f 45/3/1 44/3/1 43/3/1
f 46/3/1 44/3/1 45/3/1
f 47/2/2 48/2/2 51/2/2
f 51/2/2 48/2/2 52/2/2
f 49/2/2 50/2/2 53/2/2
f 53/2/2 50/2/2 54/2/2
f 55/3/2 56/3/2 57/3/2
f 57/3/2 56/3/2 58/3/2
f 59/4/2 60/4/2 61/4/2
f 61/4/2 60/4/2 62/4/2
f 63/3/2 64/3/2 65/3/2
f 65/3/2 64/3/2 66/3/2
f 67/3/2 68/3/2 69/3/2
f 69/3/2 68/3/2 70/3/2
f 71/3/2 72/3/2 73/3/2
f 73/3/2 72/3/2 74/3/2
f 74/3/2 72/3/2 75/3/2
f 75/3/2 72/3/2 76/3/2
f 73/2/2 74/2/2 77/2/2
f 77/2/2 74/2/2 78/2/2
f 75/2/2 76/2/2 79/2/2
f 79/2/2 76/2/2 80/2/2
f 81/3/2 82/3/2 83/3/2
f 83/3/2 82/3/2 84/3/2
f 85/3/2 86/3/2 87/3/2
f 87/3/2 86/3/2 88/3/2
f 89/3/2 90/3/2 91/3/2
f 91/3/2 90/3/2 92/3/2
f 97/3/3 94/3/3 93/3/3
f 98/3/3 94/3/3 97/3/3
f 99/3/3 96/3/3 95/3/3
f 100/3/3 96/3/3 99/3/3
f 108/3/3 104/3/3 103/3/3
f 108/2/3 105/2/3 104/2/3
f 109/2/3 105/2/3 108/2/3
f 110/3/3 108/3/3 103/3/3
f 112/3/3 102/3/3 101/3/3
f 113/3/3 102/3/3 112/3/3
f 114/3/3 110/3/3 103/3/3
f 115/2/3 111/2/3 110/2/3
f 115/3/3 110/3/3 114/3/3
f 116/2/3 111/2/3 115/2/3
f 117/3/3 107/3/3 106/3/3
f 118/3/3 107/3/3 117/3/3
f 123/4/3 120/4/3 119/4/3
f 124/4/3 120/4/3 123/4/3
f 125/3/3 122/3/3 121/3/3
f 126/3/3 122/3/3 125/3/3
f 129/2/3 128/2/3 127/2/3
f 130/2/3 128/2/3 129/2/3
f 135/3/3 132/3/3 131/3/3
f 136/3/3 132/3/3 135/3/3
f 137/2/3 134/2/3 133/2/3
f 138/2/3 134/2/3 137/2/3
f 139/2/4 140/2/4 141/2/4
f 141/2/4 140/2/4 142/2/4
f 143/3/4 144/3/4 147/3/4
f 147/3/4 144/3/4 148/3/4
f 145/2/4 146/2/4 149/2/4
f 149/2/4 146/2/4 150/2/4
f 151/4/4 152/4/4 155/4/4
f 155/4/4 152/4/4 156/4/4
f 153/3/4 154/3/4 157/3/4
f 157/3/4 154/3/4 158/3/4
f 161/3/4 162/3/4 166/3/4
f 162/2/4 163/2/4 166/2/4
f 166/2/4 163/2/4 167/2/4
f 161/3/4 166/3/4 168/3/4
f 159/3/4 160/3/4 170/3/4
f 170/3/4 160/3/4 171/3/4
f 161/3/4 168/3/4 172/3/4
f 168/2/4 169/2/4 173/2/4
f 172/3/4 168/3/4 173/3/4
f 173/2/4 169/2/4 174/2/4
f 164/3/4 165/3/4 175/3/4
f 175/3/4 165/3/4 176/3/4
f 177/3/4 178/3/4 181/3/4
f 181/3/4 178/3/4 182/3/4
f 179/3/4 180/3/4 183/3/4
f 183/3/4 180/3/4 184/3/4
f 187/3/5 186/3/5 185/3/5
f 188/3/5 186/3/5 187/3/5
f 191/3/5 190/3/5 189/3/5
f 192/3/5 190/3/5 191/3/5
f 193/3/5 191/3/5 189/3/5
f 194/3/5 190/3/5 192/3/5
f 195/3/5 193/3/5 189/3/5
f 195/3/5 194/3/5 193/3/5
f 196/3/5 190/3/5 194/3/5
f 196/3/5 194/3/5 195/3/5
f 199/3/5 198/3/5 197/3/5
f 200/3/5 198/3/5 199/3/5
f 201/3/5 198/3/5 200/3/5
f 202/3/5 198/3/5 201/3/5
f 203/3/5 199/3/5 197/3/5
f 204/3/5 201/3/5 200/3/5
f 205/3/5 201/3/5 204/3/5
f 206/3/5 198/3/5 202/3/5
f 207/3/5 203/3/5 197/3/5
f 207/3/5 204/3/5 203/3/5
f 208/1/5 205/1/5 204/1/5
f 208/3/5 204/3/5 207/3/5
f 209/3/5 206/3/5 205/3/5
f 209/1/5 205/1/5 208/1/5
f 210/3/5 198/3/5 206/3/5
f 210/3/5 206/3/5 209/3/5
f 211/3/5 207/3/5 197/3/5
f 212/3/5 209/3/5 208/3/5
f 213/3/5 209/3/5 212/3/5
f 214/3/5 198/3/5 210/3/5
f 215/3/5 213/3/5 212/3/5
f 215/3/5 214/3/5 213/3/5
f 215/3/5 211/3/5 197/3/5
f 215/3/5 212/3/5 211/3/5
f 216/3/5 198/3/5 214/3/5
f 216/3/5 214/3/5 215/3/5
f 219/3/5 218/3/5 217/3/5
f 220/3/5 218/3/5 219/3/5
f 221/3/6 222/3/6 223/3/6
f 223/3/6 222/3/6 224/3/6
f 221/3/6 223/3/6 225/3/6
f 224/3/6 222/3/6 226/3/6
f 221/3/6 225/3/6 227/3/6
f 225/3/6 226/3/6 227/3/6
f 226/3/6 222/3/6 228/3/6
f 227/3/6 226/3/6 228/3/6
f 229/3/6 230/3/6 231/3/6
f 231/3/6 230/3/6 232/3/6
f 229/3/6 231/3/6 233/3/6
f 232/3/6 230/3/6 234/3/6
f 229/3/6 233/3/6 235/3/6
f 233/3/6 234/3/6 235/3/6
f 234/3/6 230/3/6 236/3/6
f 235/3/6 234/3/6 236/3/6
f 237/3/6 238/3/6 240/3/6
f 240/3/6 238/3/6 241/3/6
f 239/3/6 240/3/6 243/3/6
f 240/1/6 241/1/6 244/1/6
f 243/3/6 240/3/6 244/3/6
f 241/3/6 242/3/6 245/3/6
f 244/1/6 241/1/6 245/1/6
f 245/3/6 242/3/6 246/3/6
f 244/3/6 245/3/6 247/3/6
f 247/3/6 245/3/6 248/3/6
f 249/3/6 250/3/6 251/3/6
f 251/3/6 250/3/6 252/3/6
f 253/1/6 254/1/6 255/1/6
f 255/1/6 254/1/6 256/1/6
f 249/3/6 251/3/6 257/3/6
f 252/3/6 250/3/6 258/3/6
f 249/3/6 257/3/6 259/3/6
f 257/3/6 258/3/6 259/3/6
f 258/3/6 250/3/6 260/3/6
f 259/3/6 258/3/6 260/3/6
f 261/3/6 262/3/6 263/3/6
f 263/3/6 262/3/6 264/3/6
f 261/3/6 263/3/6 265/3/6
f 264/3/6 262/3/6 266/3/6
f 261/3/6 265/3/6 267/3/6
f 265/3/6 266/3/6 267/3/6
f 266/3/6 262/3/6 268/3/6
f 267/3/6 266/3/6 268/3/6
f 269/3/6 270/3/6 271/3/6
f 271/3/6 270/3/6 272/3/6
